<svg width="36" height="36" viewBox="0 0 36 36" xmlns="http://www.w3.org/2000/svg"><title>icon</title><g fill-rule="nonzero" fill="none"><path d="M32.6 7.5C26.8-.6 15.5-2.4 7.5 3.4-.6 9.2-2.4 20.5 3.4 28.5c5.8 8.1 17.1 9.9 25.1 4.1 8.1-5.8 9.9-17.1 4.1-25.1z" fill="#5286D9"/><path d="M18.836 18.087h-7.04v.797h7.04v-.797zm0 2.64h-7.04v.853h7.04v-.853zm-4.37-13.224v2.65h-2.67v2.654H9.2V29.47h12.29v-2.666h2.6v-2.587h2.653V7.5H14.465v.003zm6.17 21.116H10.052V13.603h10.586V28.62zm2.6-2.614H21.49V12.808h-8.84v-1.8h10.584v14.998h.002zm2.654-2.64h-1.802V10.154h-8.772v-1.8H25.89v15.013zm-7.053 2.626h-7.04v.853h7.04v-.854.002zm0-2.652h-7.04v.854h7.04v-.854zm.013-7.92h-7.04v.88h7.04v-.88z" fill="#FFF"/></g></svg>